<svg width="28" height="27" viewBox="0 0 28 27" fill="none" xmlns="http://www.w3.org/2000/svg">
<g id="Iconsax/Linear/call">
<path id="Vector" d="M25.5853 20.1516C25.5853 20.5474 25.4921 20.9541 25.2942 21.3499C25.0962 21.7457 24.84 22.1195 24.5023 22.4713C23.9316 23.0649 23.3028 23.4937 22.5924 23.7685C21.8937 24.0434 21.1367 24.1863 20.3215 24.1863C19.1337 24.1863 17.8643 23.9225 16.525 23.3838C15.1858 22.8451 13.8466 22.1195 12.519 21.207C11.1659 20.2726 9.88904 19.2436 8.69923 18.1287C7.52159 17.0096 6.43545 15.8078 5.45011 14.5338C4.49518 13.2805 3.72657 12.0272 3.16758 10.7849C2.6086 9.53159 2.3291 8.33326 2.3291 7.18991C2.3291 6.44233 2.46885 5.72774 2.74834 5.06811C3.02784 4.39749 3.47037 3.78184 4.08758 3.23215C4.8329 2.53954 5.64809 2.19873 6.50986 2.19873C6.83594 2.19873 7.16201 2.26469 7.45315 2.39662C7.75594 2.52854 8.02378 2.72643 8.23341 3.01227L10.9352 6.60724C11.1448 6.88208 11.2962 7.13494 11.401 7.3768C11.5058 7.60767 11.564 7.83854 11.564 8.04743C11.564 8.31128 11.4825 8.57513 11.3195 8.82798C11.1681 9.08084 10.9468 9.34469 10.6673 9.60854L9.78227 10.4771C9.65416 10.598 9.59594 10.7409 9.59594 10.9168C9.59594 11.0048 9.60758 11.0817 9.63087 11.1697C9.66581 11.2576 9.70075 11.3236 9.72404 11.3895C9.93366 11.7523 10.2947 12.2251 10.8071 12.7967C11.3311 13.3684 11.8901 13.9511 12.4957 14.5338C13.1245 15.1164 13.7301 15.6551 14.3473 16.1498C14.9529 16.6336 15.4537 16.9634 15.8496 17.1613C15.9078 17.1833 15.9777 17.2162 16.0592 17.2492C16.1524 17.2822 16.2456 17.2932 16.3504 17.2932C16.5483 17.2932 16.6997 17.2272 16.8278 17.1063L17.7129 16.2818C18.004 16.0069 18.2835 15.798 18.5514 15.6661C18.8192 15.5122 19.0871 15.4353 19.3782 15.4353C19.5995 15.4353 19.8324 15.4792 20.0886 15.5782C20.3448 15.6771 20.6126 15.82 20.9038 16.0069L24.7585 18.5905C25.0613 18.7884 25.2709 19.0192 25.399 19.2941C25.5154 19.5689 25.5853 19.8438 25.5853 20.1516Z" stroke="black" stroke-width="1.5" stroke-miterlimit="10"/>
</g>
</svg>
