<svg width="29" height="28" viewBox="0 0 29 28" fill="none" xmlns="http://www.w3.org/2000/svg">
<g id="Vector">
<path id="Vector_2" d="M14.7534 0.962769C7.03631 0.962769 0.778564 7.01867 0.778564 14.4893C0.778564 20.4657 4.78277 25.536 10.3354 27.3246C11.0338 27.4498 11.2902 27.0312 11.2902 26.6739C11.2902 26.3514 11.2773 25.2858 11.2712 24.1556C7.38343 24.9738 6.56306 22.5596 6.56306 22.5596C5.92736 20.9961 5.01141 20.5804 5.01141 20.5804C3.74348 19.7409 5.10698 19.7581 5.10698 19.7581C6.5103 19.8535 7.24921 21.152 7.24921 21.152C8.49562 23.2199 10.5184 22.6221 11.3159 22.2765C11.4413 21.4022 11.8035 20.8055 12.2032 20.4677C9.09916 20.1257 5.83618 18.9658 5.83618 13.7828C5.83618 12.306 6.38209 11.0994 7.27605 10.1521C7.13096 9.81143 6.65262 8.43565 7.41143 6.57247C7.41143 6.57247 8.58495 6.20893 11.2555 7.95899C12.3702 7.65929 13.5657 7.50899 14.7534 7.50384C15.941 7.50899 17.1374 7.65929 18.2542 7.95899C20.9215 6.20893 22.0934 6.57247 22.0934 6.57247C22.8541 8.43565 22.3755 9.81143 22.2304 10.1521C23.1265 11.0994 23.6687 12.306 23.6687 13.7828C23.6687 18.9782 20.3995 20.1221 17.2876 20.457C17.7889 20.8767 18.2355 21.6999 18.2355 22.9619C18.2355 24.7718 18.2193 26.2284 18.2193 26.6739C18.2193 27.0339 18.4708 27.4557 19.1792 27.3228C24.7288 25.5322 28.7279 20.4637 28.7279 14.4893C28.7279 7.01867 22.4711 0.962769 14.7534 0.962769ZM6.01258 20.2316C5.9818 20.2988 5.87257 20.319 5.77306 20.2728C5.6717 20.2287 5.61478 20.1371 5.64764 20.0697C5.67772 20.0005 5.78718 19.9812 5.88831 20.0276C5.9899 20.0717 6.04776 20.1642 6.01258 20.2316ZM6.69999 20.8253C6.63334 20.8851 6.50305 20.8573 6.41465 20.7628C6.32324 20.6685 6.30611 20.5424 6.37369 20.4817C6.44242 20.4219 6.56877 20.4499 6.66041 20.5442C6.75182 20.6396 6.76964 20.7648 6.69999 20.8253ZM7.17157 21.5849C7.08595 21.6425 6.94594 21.5885 6.85939 21.4682C6.77377 21.3479 6.77377 21.2037 6.86124 21.1459C6.94802 21.0881 7.08595 21.1401 7.17365 21.2594C7.25905 21.3817 7.25905 21.526 7.17157 21.5849ZM7.96912 22.4646C7.89253 22.5464 7.72938 22.5244 7.60997 22.4129C7.48778 22.3038 7.45376 22.149 7.53059 22.0673C7.60811 21.9853 7.77219 22.0084 7.89253 22.119C8.01379 22.2279 8.05081 22.3838 7.96912 22.4646ZM8.99988 22.7616C8.9661 22.8676 8.80896 22.9157 8.65068 22.8707C8.49262 22.8243 8.38917 22.7003 8.42111 22.5932C8.45397 22.4866 8.6118 22.4364 8.77124 22.4845C8.92907 22.5307 9.03274 22.6539 8.99988 22.7616ZM10.1729 22.8876C10.1769 22.9991 10.0426 23.0917 9.87649 23.0937C9.7094 23.0973 9.57425 23.007 9.5724 22.8972C9.5724 22.7846 9.70362 22.6929 9.8707 22.6903C10.0369 22.6871 10.1729 22.7767 10.1729 22.8876ZM11.3253 22.8448C11.3452 22.9537 11.2297 23.0655 11.0647 23.0953C10.9025 23.1239 10.7523 23.0567 10.7317 22.9488C10.7116 22.8372 10.8292 22.7255 10.9912 22.6966C11.1564 22.6688 11.3043 22.7342 11.3253 22.8448Z" fill="#161614"/>
</g>
</svg>
