<svg width="29" height="27" viewBox="0 0 29 27" fill="none" xmlns="http://www.w3.org/2000/svg">
<g id="Iconsax/Linear/instagram">
<path id="Vector" d="M10.8102 24.7702H17.7976C23.6204 24.7702 25.9495 22.5714 25.9495 17.0745V10.4782C25.9495 4.98135 23.6204 2.78259 17.7976 2.78259H10.8102C4.98744 2.78259 2.65833 4.98135 2.65833 10.4782V17.0745C2.65833 22.5714 4.98744 24.7702 10.8102 24.7702Z" stroke="black" stroke-width="1.5" stroke-linecap="round" stroke-linejoin="round"/>
<path id="Vector_2" d="M14.3039 17.6242C14.8391 17.6242 15.3691 17.5247 15.8637 17.3313C16.3582 17.138 16.8075 16.8545 17.186 16.4972C17.5645 16.1399 17.8647 15.7158 18.0695 15.2489C18.2744 14.7821 18.3798 14.2817 18.3798 13.7764C18.3798 13.2711 18.2744 12.7708 18.0695 12.3039C17.8647 11.8371 17.5645 11.4129 17.186 11.0556C16.8075 10.6983 16.3582 10.4149 15.8637 10.2215C15.3691 10.0281 14.8391 9.92859 14.3039 9.92859C13.2228 9.92859 12.1861 10.334 11.4217 11.0556C10.6573 11.7772 10.2279 12.7559 10.2279 13.7764C10.2279 14.7969 10.6573 15.7756 11.4217 16.4972C12.1861 17.2188 13.2228 17.6242 14.3039 17.6242Z" stroke="black" stroke-width="1.5" stroke-linecap="round" stroke-linejoin="round"/>
<path id="Vector_3" d="M20.8673 8.27954H20.8835" stroke="black" stroke-width="2" stroke-linecap="round" stroke-linejoin="round"/>
</g>
</svg>
