<svg width="28" height="20" viewBox="0 0 28 20" fill="none" xmlns="http://www.w3.org/2000/svg">
<g id="Bitpay svg" clip-path="url(#clip0_18_58)">
<path id="Vector" d="M1.90564 19.7889H6.35213V9.59463L0 5.09717V17.9899C0 18.9853 0.854361 19.7889 1.90564 19.7889Z" fill="black"/>
<path id="Vector_2" d="M21.5973 19.7889H26.0438C27.0982 19.7889 27.9494 18.9823 27.9494 17.9899V5.09717L21.5973 9.59463" fill="black"/>
<path id="Vector_3" d="M21.5973 1.79884V9.59443L27.9494 5.09697V2.69833C27.9494 0.473587 25.2593 -0.794697 23.3759 0.539549" fill="#4B4949"/>
<path id="Vector_4" d="M6.35217 9.59454V1.79895L13.9747 7.1959L21.5973 1.79895V9.59454L13.9747 14.9915" fill="black"/>
<path id="Vector_5" d="M0 2.69833V5.09697L6.35213 9.59443V1.79884L4.57353 0.539549C2.68695 -0.794697 0 0.473587 0 2.69833Z" fill="#4B4949"/>
</g>
<defs>
<clipPath id="clip0_18_58">
<rect width="27.9494" height="19.7888" fill="white"/>
</clipPath>
</defs>
</svg>
